<?xml version="1.0" standalone="no"?>
<!DOCTYPE svg PUBLIC "-//W3C//DTD SVG 20010904//EN"
 "http://www.w3.org/TR/2001/REC-SVG-20010904/DTD/svg10.dtd">
<svg version="1.0" xmlns="http://www.w3.org/2000/svg"
 width="300.000000pt" height="249.000000pt" viewBox="0 0 300.000000 249.000000"
 preserveAspectRatio="xMidYMid meet">
<metadata>
Created by potrace 1.10, written by Peter Selinger 2001-2011
</metadata>
<g transform="translate(0.000000,249.000000) scale(0.050000,-0.050000)"
fill="#27b0dd" stroke="none">
<path d="M2867 4706 c-37 -7 -42 -18 -33 -84 13 -95 -42 -227 -142 -337 -91
-101 -90 -105 17 -105 232 0 378 -150 191 -198 -178 -46 -383 -203 -507 -392
-44 -65 -53 -72 -53 -35 0 87 84 265 172 363 l90 100 -84 22 c-82 23 -114 17
-309 -52 -27 -10 -16 11 34 64 121 129 177 227 177 308 0 128 -43 136 -140 26
-335 -380 -380 -913 -111 -1315 105 -157 136 -157 145 -3 24 422 309 780 678
852 390 76 800 -278 866 -748 28 -197 47 -196 151 8 387 761 -307 1689 -1142
1526z m498 -208 c41 -21 75 -33 75 -25 0 7 18 -3 40 -23 22 -20 40 -29 40 -21
0 9 19 -6 42 -32 22 -26 35 -33 27 -17 -17 35 184 -170 236 -240 19 -27 35
-64 35 -84 0 -20 8 -36 17 -36 48 0 85 -401 39 -417 -13 -5 -11 -14 4 -23 17
-11 18 -19 2 -29 -14 -8 -37 20 -60 73 -37 85 -122 199 -122 164 0 -10 -37 23
-83 72 -45 50 -90 88 -100 85 -9 -3 -17 5 -17 16 0 12 -9 16 -19 9 -11 -6 -38
7 -60 29 -24 24 -68 41 -106 41 -49 1 -58 5 -35 20 28 18 -20 29 -115 25 -14
0 -25 8 -25 19 0 11 -13 15 -30 9 -17 -7 -28 -1 -25 13 3 13 -7 22 -21 19 -14
-3 -30 8 -37 25 -6 16 -21 24 -32 17 -14 -9 -16 6 -7 44 13 49 11 53 -17 30
-25 -21 -33 -19 -44 12 -8 20 -21 42 -31 48 -27 19 85 223 116 211 15 -6 33
-1 40 11 18 29 179 2 273 -45z"/>
<path d="M2958 3624 c-152 -56 -216 -112 -72 -63 63 22 169 45 234 52 65 7
114 20 108 30 -17 28 -172 18 -270 -19z"/>
<path d="M2955 3552 c-164 -35 -155 -42 62 -45 110 -1 234 -15 288 -33 l95
-30 0 68 0 68 -165 -2 c-91 -1 -217 -12 -280 -26z"/>
<path d="M2728 3451 c-163 -71 -198 -521 -53 -693 164 -196 855 -126 914 92
22 81 12 175 -16 164 -288 -110 -394 -102 -439 34 -46 137 89 191 371 147 112
-17 118 -2 34 93 -125 142 -627 243 -811 163z m268 -190 c5 -14 -3 -46 -16
-72 -34 -63 -15 -194 38 -261 68 -86 56 -115 -41 -102 -45 6 -89 21 -97 34 -8
13 -22 22 -31 20 -20 -4 -48 63 -35 85 4 8 -2 15 -14 15 -18 0 -17 191 1 215
2 3 5 14 7 26 6 57 171 93 188 40z"/>
<path d="M3241 3121 c-38 -24 -16 -91 29 -91 26 0 42 15 46 42 7 47 -35 73
-75 49z"/>
<path d="M2000 2209 c0 -16 14 -35 30 -42 21 -8 30 -40 30 -107 0 -106 34
-151 99 -130 45 14 54 -9 17 -46 -27 -27 -48 -372 -28 -453 12 -47 22 -51 122
-51 119 0 133 17 67 83 -96 96 -24 500 95 529 100 25 117 -22 125 -333 l6
-279 109 0 c108 0 155 43 78 73 -22 8 -30 43 -30 129 0 136 38 158 116 68 24
-28 65 -50 93 -50 53 0 84 30 51 50 -26 16 -26 102 1 151 31 58 -110 57 -146
-1 -44 -71 -115 -52 -115 31 0 200 -232 307 -421 195 -71 -42 -86 -28 -90 80
-1 46 -4 95 -6 109 -5 39 -203 34 -203 -6z"/>
<path d="M4282 2175 c-148 -54 -203 -262 -106 -394 60 -81 60 -81 -81 -81
l-125 0 -1 -65 c-1 -36 -5 -78 -10 -95 -6 -18 7 -32 35 -36 67 -10 126 31 126
87 l0 50 225 -5 225 -6 10 -120 10 -120 115 -6 c123 -6 153 22 75 71 -30 19
-40 47 -40 111 0 114 -25 134 -168 134 -103 0 -128 8 -176 54 -73 69 -71 79
19 96 285 53 300 318 20 342 -47 5 -116 -3 -153 -17z m191 -85 c32 -83 -86
-212 -165 -182 -37 14 -36 112 3 168 37 52 144 61 162 14z"/>
<path d="M1300 2152 c0 -15 14 -33 30 -39 21 -8 30 -40 30 -102 0 -81 5 -91
45 -91 106 -1 109 -25 27 -225 -103 -257 -97 -303 43 -311 110 -6 137 18 71
66 -33 24 -1 182 55 272 38 61 104 -39 129 -192 23 -149 24 -150 130 -150 110
0 140 24 81 65 -24 17 -49 70 -62 131 -28 131 -82 199 -171 216 -65 12 -69 17
-57 71 15 71 -18 117 -83 117 -44 0 -48 8 -48 100 l0 100 -110 0 c-81 0 -110
-7 -110 -28z"/>
<path d="M3260 2152 c0 -15 14 -33 30 -39 51 -20 33 -74 -52 -159 -215 -216
-186 -334 81 -334 l131 0 0 -115 0 -115 105 -6 c105 -6 154 39 75 69 -30 11
-44 147 -18 172 21 22 68 -8 68 -43 0 -52 41 -82 114 -82 65 0 87 25 45 51
-12 7 -19 41 -15 76 6 63 6 63 -101 69 l-108 6 11 83 c16 122 -9 155 -119 155
-91 0 -91 0 -61 46 30 47 41 92 36 159 -3 46 -222 53 -222 7z m198 -299 c13
-16 17 -54 9 -91 -15 -77 -189 -90 -204 -15 -16 86 140 171 195 106z"/>
<path d="M1240 1210 c0 -26 212 -30 1790 -30 1578 0 1790 4 1790 30 0 26 -212
30 -1790 30 -1578 0 -1790 -4 -1790 -30z"/>
<path d="M2196 1016 c13 -13 24 -44 24 -69 0 -24 9 -50 20 -57 11 -7 15 -34 8
-61 -8 -33 -4 -49 14 -49 20 0 21 -5 2 -24 -50 -50 -30 -156 30 -156 42 0 49
5 30 24 -40 40 -30 138 16 150 22 6 40 20 40 31 0 11 -19 15 -41 9 -52 -14
-48 60 6 94 70 44 104 -8 111 -165 5 -131 9 -143 49 -143 33 0 38 5 19 24 -14
14 -24 81 -24 160 0 159 -46 205 -160 162 -67 -25 -80 -17 -80 47 0 35 -11 47
-44 47 -34 0 -39 -5 -20 -24z"/>
<path d="M4660 991 c0 -27 -15 -58 -34 -68 -71 -40 -71 -323 0 -323 33 0 37 5
18 24 -64 64 -14 296 63 296 61 0 73 -31 73 -192 0 -112 5 -128 38 -128 32 0
36 12 29 95 -18 195 -28 226 -78 249 -27 12 -49 39 -49 59 0 20 -13 37 -30 37
-19 0 -30 -19 -30 -49z"/>
<path d="M1307 990 c-96 -67 -64 -230 45 -230 95 0 128 33 128 131 0 66 8 89
30 89 21 0 30 -21 30 -72 0 -61 9 -75 59 -94 54 -20 56 -25 32 -73 -53 -104
-57 -141 -15 -141 27 0 39 14 39 45 1 25 20 88 43 142 47 109 53 174 18 209
-36 36 -356 32 -409 -6z m109 -95 c-5 -76 -11 -85 -56 -85 -57 0 -82 89 -39
141 53 64 102 35 95 -56z m275 64 c27 -45 -10 -122 -57 -115 -75 10 -72 136 4
136 22 0 46 -10 53 -21z"/>
<path d="M1871 976 c-39 -56 -39 -209 -1 -276 39 -68 38 -72 -25 -71 -42 1
-56 -10 -61 -44 -8 -52 20 -59 56 -15 17 20 62 30 139 30 125 0 181 36 181
117 0 64 -56 53 -64 -12 -8 -76 -119 -91 -163 -21 -66 105 -61 130 31 159 72
23 87 36 93 85 11 97 -126 133 -186 48z m139 -44 c0 -25 -21 -46 -56 -57 -71
-24 -87 -9 -57 56 28 63 113 63 113 1z"/>
<path d="M2704 999 c-159 -64 -128 -399 37 -399 42 0 82 -9 89 -20 22 -36 50
-21 50 28 0 44 -6 46 -92 37 -111 -13 -127 5 -128 146 0 138 87 260 104 144 7
-55 110 -64 142 -13 52 83 -71 130 -202 77z m171 -44 c-13 -38 -75 -43 -75 -6
0 18 17 31 42 31 24 0 38 -10 33 -25z"/>
<path d="M3229 983 c8 -24 -9 -58 -50 -101 -85 -89 -75 -150 26 -158 68 -6 75
-12 75 -65 0 -46 9 -59 40 -59 22 0 40 9 40 20 0 11 -9 20 -20 20 -11 0 -20
18 -20 40 0 22 13 40 30 40 17 0 30 -9 30 -20 0 -11 14 -20 32 -20 21 0 28 11
20 32 -7 17 -12 35 -12 40 0 4 -18 8 -40 8 -30 0 -40 13 -40 52 0 35 -13 55
-40 62 -31 8 -35 18 -20 47 32 59 24 99 -21 99 -31 0 -39 -9 -30 -37z m51
-183 c0 -29 -13 -40 -50 -40 -47 0 -67 36 -37 67 30 30 87 12 87 -27z"/>
<path d="M3573 983 c-42 -46 -44 -204 -3 -283 29 -56 29 -58 -25 -64 -39 -4
-57 -19 -61 -51 -8 -50 31 -62 49 -15 8 22 44 30 136 30 134 0 202 40 188 112
-12 58 -54 55 -61 -6 -10 -90 -121 -92 -176 -2 -52 86 -44 121 32 137 87 18
108 35 108 86 0 92 -121 129 -187 56z m137 -42 c0 -34 -101 -97 -122 -76 -8 8
-4 38 9 66 26 57 113 64 113 10z"/>
<path d="M3958 962 c-87 -88 -84 -197 7 -206 58 -5 66 -13 71 -76 8 -83 24
-104 63 -81 23 15 24 24 3 49 -14 16 -21 38 -15 48 20 32 -48 104 -98 104 -57
0 -58 1 -21 89 29 68 113 117 128 74 13 -39 64 -25 64 17 0 66 -128 55 -202
-18z"/>
<path d="M4220 980 c0 -43 51 -56 65 -16 13 39 59 -5 49 -46 -8 -30 1 -38 38
-38 53 0 60 -35 31 -160 -21 -89 -10 -120 41 -120 33 0 36 6 18 28 -17 20 -18
52 -3 115 31 136 27 157 -29 157 -39 0 -50 10 -50 48 0 51 -33 72 -112 72 -35
0 -48 -11 -48 -40z"/>
</g>
</svg>
