<?xml version="1.0" standalone="no"?>
<!DOCTYPE svg PUBLIC "-//W3C//DTD SVG 20010904//EN"
 "http://www.w3.org/TR/2001/REC-SVG-20010904/DTD/svg10.dtd">
<svg version="1.0" xmlns="http://www.w3.org/2000/svg"
 width="223.000000pt" height="226.000000pt" viewBox="0 0 223.000000 226.000000"
 preserveAspectRatio="xMidYMid meet">
<g transform="translate(0.000000,226.000000) scale(0.066667,-0.066667)"
fill="#28aae2" stroke="none">
<path d="M1544 2796 c-15 -5 -23 -25 -23 -59 0 -34 -16 -75 -47 -118 l-47 -67
57 -9 c32 -6 72 -24 91 -41 l33 -31 -104 -50 c-75 -36 -120 -70 -161 -122
l-57 -71 10 52 c5 29 30 81 54 115 25 34 45 66 45 71 0 16 -121 9 -155 -9 -25
-13 -21 -4 17 40 73 82 100 203 42 184 -118 -39 -207 -360 -152 -546 45 -150
128 -233 128 -127 0 189 154 381 331 413 181 32 404 -183 404 -391 0 -61 40
-38 76 44 114 256 -28 605 -282 692 -74 26 -219 43 -260 30z"/>
<path d="M1583 2272 c-25 -13 -33 -19 -18 -15 15 5 54 8 87 8 36 0 56 6 51 15
-14 21 -68 17 -120 -8z"/>
<path d="M1525 2231 c4 -6 42 -11 85 -11 43 0 100 -6 126 -14 44 -12 49 -11
49 16 0 29 -8 30 -134 26 -73 -3 -130 -11 -126 -17z"/>
<path d="M1473 2196 c-76 -35 -89 -262 -19 -340 89 -99 403 -50 427 67 12 62
8 64 -79 35 -112 -37 -181 13 -129 93 23 34 30 36 113 26 122 -14 111 35 -20
90 -58 24 -259 44 -293 29z"/>
<path d="M1710 2018 c0 -13 7 -23 15 -23 8 0 15 10 15 23 0 12 -7 22 -15 22
-8 0 -15 -10 -15 -22z"/>
<path d="M1159 1609 c-33 -6 -49 -34 -19 -34 8 0 15 -24 15 -54 0 -39 7 -56
26 -61 23 -6 26 -23 22 -133 l-5 -127 53 0 c30 0 54 7 54 15 0 8 -7 15 -15 15
-30 0 -18 207 15 240 59 59 105 -21 85 -147 -15 -91 0 -123 59 -123 28 0 51 7
51 15 0 8 -7 15 -15 15 -8 0 -15 27 -15 60 0 61 32 85 50 38 20 -51 63 -25 65
37 1 64 -20 78 -60 38 -36 -36 -50 -27 -60 34 -14 88 -95 115 -208 71 -20 -9
-26 0 -30 46 -5 59 -13 66 -68 55z"/>
<path d="M795 1568 c0 -13 7 -23 15 -23 8 0 15 -20 15 -45 0 -35 7 -45 30 -45
17 0 30 -10 30 -21 0 -12 -13 -53 -30 -91 -47 -109 -41 -143 23 -143 49 0 72
21 35 33 -23 8 16 132 41 132 19 0 51 -86 51 -139 0 -20 13 -26 53 -26 46 0
71 19 41 33 -6 2 -22 35 -34 72 -15 46 -35 73 -64 87 -28 13 -41 31 -41 56 0
27 -8 37 -30 37 -24 0 -30 10 -30 53 0 50 -2 52 -52 52 -37 0 -53 -7 -53 -22z"/>
<path d="M1731 1573 c-5 -9 -1 -22 10 -29 15 -9 6 -27 -37 -74 -84 -93 -74
-141 32 -147 l78 -5 -3 -55 c-3 -54 -2 -56 53 -60 32 -3 56 2 56 11 0 9 -7 16
-15 16 -8 0 -15 20 -15 45 0 51 22 61 34 15 14 -51 69 -39 68 15 -1 41 -6 45
-53 45 -49 0 -52 3 -42 39 12 49 -14 81 -64 81 -30 0 -35 4 -21 18 38 38 22
102 -26 102 -24 0 -49 -8 -55 -17z m81 -182 c5 -37 0 -41 -41 -41 -34 0 -46 7
-46 27 0 69 79 82 87 14z"/>
<path d="M2167 1553 c-42 -42 -47 -95 -14 -159 l23 -44 -57 0 c-52 0 -57 -4
-60 -45 -3 -54 53 -67 67 -15 7 26 20 30 110 30 l102 0 5 -56 c4 -53 8 -57 61
-61 32 -3 56 2 56 11 0 9 -6 16 -14 16 -8 0 -16 25 -19 56 -4 55 -6 57 -72 61
-106 8 -157 67 -73 84 62 12 88 35 88 77 0 85 -134 115 -203 45z m125 -28 c7
-34 -23 -70 -59 -70 -19 0 -28 11 -28 35 0 65 76 96 87 35z"/>
<path d="M1180 1114 c233 -3 617 -3 855 0 238 2 48 4 -422 4 -471 0 -665 -2
-433 -4z"/>
<path d="M1074 1011 c-27 -26 -31 -99 -8 -142 12 -23 10 -29 -7 -29 -24 0 -47
-27 -34 -40 4 -4 17 -2 28 4 11 7 37 14 59 15 62 3 88 17 88 51 0 16 -7 30
-15 30 -8 0 -14 -5 -13 -11 8 -55 -50 -70 -76 -20 -23 43 -20 54 22 73 42 19
50 70 13 84 -31 12 -31 12 -57 -15z m58 -20 c5 -8 -5 -22 -22 -31 -26 -14 -30
-12 -30 14 0 31 36 43 52 17z"/>
<path d="M1223 1020 c5 -8 13 -57 19 -109 6 -51 17 -92 26 -89 8 2 12 20 10
40 -3 19 3 40 13 46 13 8 13 14 -1 22 -23 14 -7 45 23 45 16 0 22 -20 22 -75
0 -51 6 -75 19 -75 14 0 17 21 11 79 -7 77 -8 78 -56 78 -37 0 -49 7 -49 27 0
14 -11 26 -23 26 -13 0 -20 -7 -14 -15z"/>
<path d="M1873 1003 c-31 -31 -32 -67 -5 -137 7 -18 3 -26 -14 -26 -13 0 -24
-10 -24 -22 0 -25 23 -31 37 -9 4 7 25 11 46 9 48 -5 107 39 89 67 -9 15 -15
12 -24 -12 -15 -42 -50 -42 -80 0 -29 42 -29 57 -2 57 31 0 69 42 60 67 -14
36 -50 39 -83 6z m62 -12 c0 -8 -13 -22 -30 -31 -30 -16 -45 10 -20 35 15 15
50 12 50 -4z"/>
<path d="M2379 1015 c4 -11 -3 -29 -16 -39 -30 -25 -32 -151 -3 -151 14 0 18
12 14 37 -10 53 8 113 34 113 21 0 29 -33 24 -99 -3 -36 35 -76 49 -53 5 8 3
19 -6 25 -9 5 -11 16 -6 24 16 26 -9 118 -32 118 -12 0 -22 10 -22 23 0 12
-10 22 -22 22 -12 0 -19 -9 -14 -20z"/>
<path d="M780 990 c-19 -35 4 -90 37 -90 47 0 68 20 70 65 2 36 4 39 9 14 3
-19 19 -41 35 -49 23 -13 25 -22 13 -54 -15 -41 -6 -72 17 -58 8 5 11 15 6 22
-4 8 2 38 15 69 43 102 37 111 -81 111 -90 0 -107 -4 -121 -30z m75 -22 c0
-35 -11 -44 -41 -34 -12 4 -17 41 -8 60 14 27 49 8 49 -26z m124 28 c15 -15
-5 -51 -28 -51 -12 0 -21 14 -21 30 0 28 29 41 49 21z"/>
<path d="M1435 993 c-26 -29 -33 -117 -13 -149 18 -27 123 -38 123 -12 0 13
-17 19 -49 18 -57 -3 -82 100 -34 139 19 17 23 16 23 -6 0 -34 65 -25 72 11 7
37 -88 36 -122 -1z m103 -3 c-6 -8 -16 -15 -24 -15 -8 0 -14 7 -14 15 0 8 11
15 23 15 13 0 20 -7 15 -15z"/>
<path d="M1703 1004 c6 -9 -5 -32 -23 -51 -36 -39 -30 -68 15 -68 17 0 30 -12
33 -31 2 -16 11 -28 19 -26 8 3 13 18 10 34 -4 25 -2 26 19 9 20 -17 24 -16
24 5 0 13 -10 24 -22 24 -13 0 -23 13 -23 30 0 17 -6 30 -14 30 -7 0 -10 14
-5 30 5 21 0 30 -18 30 -14 0 -20 -7 -15 -16z m30 -74 c5 -8 -2 -19 -15 -24
-29 -11 -45 1 -31 23 12 20 33 21 46 1z"/>
<path d="M2050 993 c-36 -40 -33 -93 5 -93 24 0 30 -10 30 -46 0 -27 7 -44 16
-41 9 3 16 10 15 16 0 6 -1 25 -1 42 0 19 -12 35 -30 40 -34 9 -40 52 -9 77
11 10 31 13 45 8 13 -5 24 -2 24 7 0 27 -68 19 -95 -10z"/>
<path d="M2175 1004 c0 -8 12 -13 26 -11 16 3 25 -4 22 -16 -2 -11 9 -23 25
-27 25 -7 27 -15 16 -55 -18 -62 -18 -70 5 -70 12 0 20 27 23 75 3 59 -1 75
-19 75 -13 0 -23 10 -23 23 0 14 -14 22 -37 22 -21 0 -38 -7 -38 -16z"/>
</g>
</svg>
